<?xml version="1.0" encoding="utf-8"?>
<!-- Generator: Adobe Illustrator 25.0.1, SVG Export Plug-In . SVG Version: 6.00 Build 0)  -->
<svg version="1.1" id="Layer_1" xmlns="http://www.w3.org/2000/svg" xmlns:xlink="http://www.w3.org/1999/xlink" x="0px" y="0px"
	 viewBox="0 0 288 288" style="enable-background:new 0 0 288 288;" xml:space="preserve">
<style type="text/css">
	.st0{fill:none;stroke:#8DBDEA;stroke-width:9.7778;}
	.st1{fill:none;stroke:#977C46;stroke-width:9.7778;}
	.st2{fill:none;stroke:#BABABA;stroke-width:9.7778;}
</style>
<desc>Created with Sketch.</desc>
<g>
	<path id="Path" class="st0" d="M99.4,259.9l26.8-45.9"/>
	<path id="Path_1_" class="st0" d="M170.5,259.9l26.8-45.9"/>
	<path id="Path_2_" class="st0" d="M121.5,283.1l40.3-69.1"/>
</g>
<g>
	<path id="Path_3_" class="st1" d="M100,4v34.2"/>
	<path id="Path_4_" class="st1" d="M46.2,91.7H12"/>
	<path id="Path_5_" class="st1" d="M61.9,53.6L37.7,29.4"/>
	<path id="Path_6_" class="st1" d="M128.2,64.4c-10-10.3-24.8-14.3-38.7-10.4S65.1,69.1,62,83.1c-3.2,14,1.6,28.6,12.4,38.1"/>
</g>
<path id="Path_7_" class="st2" d="M276,138.1c0-14.9-5.9-29.2-16.5-39.8c-10.5-10.5-24.8-16.5-39.8-16.5h-9.5
	c-18-21.1-46.9-29.4-73.3-20.8s-45,32.2-47.1,59.9H78c-20.3,0-36.7,16.4-36.7,36.7s16.4,36.7,36.7,36.7h141.8
	C250.9,194.3,276,169.1,276,138.1z"/>
</svg>
