<?xml version="1.0" encoding="utf-8"?>
<!-- Generator: Adobe Illustrator 25.0.1, SVG Export Plug-In . SVG Version: 6.00 Build 0)  -->
<svg version="1.1" id="Layer_1" xmlns="http://www.w3.org/2000/svg" xmlns:xlink="http://www.w3.org/1999/xlink" x="0px" y="0px"
	 viewBox="0 0 288 288" style="enable-background:new 0 0 288 288;" xml:space="preserve">
<style type="text/css">
	.st0{fill:none;stroke:#977C46;stroke-width:9.7288;}
	.st1{fill:none;stroke:#BABABA;stroke-width:9.7288;}
</style>
<desc>Created with Sketch.</desc>
<g>
	<path id="Path" class="st0" d="M126.5,45.8V2"/>
	<path id="Path_1_" class="st0" d="M68.1,70L37.1,39.1"/>
	<path id="Path_2_" class="st0" d="M43.9,128.4H0.1"/>
	<path id="Path_3_" class="st0" d="M68.1,186.8l-31,31"/>
	<path id="Path_4_" class="st0" d="M184.9,70l31-30.9"/>
	<path id="Path_5_" class="st0" d="M190.8,106.1c-10.1-29.3-38.7-48.1-69.6-45.7c-30.9,2.4-56.3,25.3-61.8,55.8s10.3,60.9,38.4,73.9
		"/>
	<polyline id="Path_6_" class="st0" points="183.8,285 213.2,234.7 179.7,234.7 209.2,184.3 	"/>
</g>
<path id="Path_7_" class="st1" d="M208.7,213.7h29.2c24.4,0,44.3-19.8,44.3-44.3s-19.8-44.3-44.3-44.3h-7.5
	c-14-17-36.9-23.7-57.9-16.9c-20.9,6.8-35.6,25.7-36.9,47.7h-9.1c-10.6-0.4-20.6,5-26,14.1s-5.4,20.5,0,29.6
	c5.4,9.1,15.4,14.5,26,14.1h48.6"/>
</svg>
