<?xml version="1.0" encoding="utf-8"?>
<!-- Generator: Adobe Illustrator 25.0.1, SVG Export Plug-In . SVG Version: 6.00 Build 0)  -->
<svg version="1.1" id="Layer_1" xmlns="http://www.w3.org/2000/svg" xmlns:xlink="http://www.w3.org/1999/xlink" x="0px" y="0px"
	 viewBox="0 0 288 288" style="enable-background:new 0 0 288 288;" xml:space="preserve">
<style type="text/css">
	.st0{fill:none;stroke:#B59659;stroke-width:9.4989;}
	.st1{fill:none;stroke:#BABABA;stroke-width:9.4989;}
</style>
<desc>Created with Sketch.</desc>
<g>
	<path id="Path" class="st0" d="M143.5,2v47.5"/>
	<path id="Path_1_" class="st0" d="M143.5,239.5V287"/>
	<path id="Path_2_" class="st0" d="M1,144.5h47.5"/>
	<path id="Path_3_" class="st0" d="M210.6,77.3l33.6-33.6"/>
	<path id="Path_4_" class="st0" d="M244.2,245.2l-33.6-33.6"/>
	<path id="Path_5_" class="st0" d="M76.3,77.3L42.7,43.7"/>
	<path id="Path_6_" class="st0" d="M76.3,211.6l-33.6,33.6"/>
	<path id="Path_7_" class="st0" d="M211.9,111.6c-14.9-31-48.8-48.1-82.7-41.6S70.2,104.7,67.6,139c-2.5,34.3,18.3,66,50.8,77.3
		s68.5-0.6,87.8-29.1"/>
</g>
<path id="Path_8_" class="st1" d="M250.3,125.5h-4.1c-10-12.4-26.6-17.2-41.7-12.1s-25.4,19-25.8,34.9h-6.1
	c-10.4,0.5-18.6,9.1-18.6,19.5s8.2,19,18.6,19.5h77.7c11.4,0.6,22.3-5.1,28.2-14.9c5.9-9.8,5.9-22.1,0-31.9
	C272.6,130.6,261.7,124.9,250.3,125.5L250.3,125.5z"/>
</svg>
