<?xml version="1.0" encoding="utf-8"?>
<!-- Generator: Adobe Illustrator 25.0.1, SVG Export Plug-In . SVG Version: 6.00 Build 0)  -->
<svg version="1.1" id="Layer_1" xmlns="http://www.w3.org/2000/svg" xmlns:xlink="http://www.w3.org/1999/xlink" x="0px" y="0px"
	 viewBox="0 0 288 288" style="enable-background:new 0 0 288 288;" xml:space="preserve">
<style type="text/css">
	.st0{fill:none;stroke:#977C46;stroke-width:9.6364;}
	.st1{fill:none;stroke:#BABABA;stroke-width:9.6364;}
	.st2{fill:none;stroke:#8DBDEA;stroke-width:9.6364;}
</style>
<desc>Created with Sketch.</desc>
<g>
	<path id="Path" class="st0" d="M100.7,2v33.7"/>
	<path id="Path_1_" class="st0" d="M47.7,88.4H14"/>
	<path id="Path_2_" class="st0" d="M63.2,50.9L39.3,27"/>
	<path id="Path_3_" class="st0" d="M128.5,61.6c-9.9-10.2-24.5-14.1-38.1-10.3s-24,14.8-27.2,28.6s1.6,28.2,12.3,37.5"/>
</g>
<path id="Path_4_" class="st1" d="M218.9,189.6c30.6,0,55.4-24.8,55.4-55.4s-24.8-55.4-55.4-55.4h-9.5
	c-17.7-20.8-46.2-28.9-72.3-20.5s-44.3,31.8-46.4,59H79.1c-20,0-36.1,16.2-36.1,36.1s16.2,36.1,36.1,36.1H218.9z"/>
<path id="Path_5_" class="st2" d="M161,209.2v77.1"/>
<path id="Path_6_" class="st2" d="M127.6,228.5l66.7,38.5"/>
<path id="Path_7_" class="st2" d="M127.6,267l66.7-38.5"/>
</svg>
