<?xml version="1.0" encoding="utf-8"?>
<!-- Generator: Adobe Illustrator 25.0.1, SVG Export Plug-In . SVG Version: 6.00 Build 0)  -->
<svg version="1.1" id="Layer_1" xmlns="http://www.w3.org/2000/svg" xmlns:xlink="http://www.w3.org/1999/xlink" x="0px" y="0px"
	 viewBox="0 0 288 288" style="enable-background:new 0 0 288 288;" xml:space="preserve">
<style type="text/css">
	.st0{fill:none;stroke:#977C46;stroke-width:9.5955;}
	.st1{fill:none;stroke:#BABABA;stroke-width:9.5955;}
	.st2{fill:none;stroke:#8DBDEA;stroke-width:9.5955;}
</style>
<desc>Created with Sketch.</desc>
<g>
	<path id="Path" class="st0" d="M129.7,43.2V0"/>
	<path id="Path_1_" class="st0" d="M72.1,67.1L41.6,36.6"/>
	<path id="Path_2_" class="st0" d="M48.3,124.7H5.1"/>
	<path id="Path_3_" class="st0" d="M72.2,182.3l-30.6,30.6"/>
	<path id="Path_4_" class="st0" d="M187.4,67l30.6-30.5"/>
	<path id="Path_5_" class="st0" d="M193.2,102.7c-10-28.9-38.2-47.4-68.7-45.1C94,60,69,82.6,63.6,112.7s10.1,60,37.9,72.9"/>
</g>
<path id="Path_6_" class="st1" d="M283.3,165.2c0-11.6-4.6-22.7-12.8-30.9s-19.3-12.8-30.9-12.8h-7.4c-13.9-16.5-36.5-23-57-16.3
	c-20.6,6.7-35,25.2-36.6,46.7h-9.2c-15.7,0-28.5,12.8-28.5,28.5s12.8,28.5,28.5,28.5h110.3C263.9,208.8,283.3,189.2,283.3,165.2
	L283.3,165.2z"/>
<path id="Path_7_" class="st1" d="M283.3,165.2c0-11.6-4.6-22.7-12.8-30.9s-19.3-12.8-30.9-12.8h-7.4c-13.9-16.5-36.5-23-57-16.3
	c-20.6,6.7-35,25.2-36.6,46.7h-9.2c-15.7,0-28.5,12.8-28.5,28.5s12.8,28.5,28.5,28.5h110.3C263.9,208.8,283.3,189.2,283.3,165.2
	L283.3,165.2z"/>
<path id="Path_8_" class="st2" d="M192.1,225.5v62.4"/>
<path id="Path_9_" class="st2" d="M165.1,241.1l54,31.2"/>
<path id="Path_10_" class="st2" d="M165.1,272.3l54-31.2"/>
</svg>
