<?xml version="1.0" encoding="utf-8"?>
<!-- Generator: Adobe Illustrator 25.0.1, SVG Export Plug-In . SVG Version: 6.00 Build 0)  -->
<svg version="1.1" id="Layer_1" xmlns="http://www.w3.org/2000/svg" xmlns:xlink="http://www.w3.org/1999/xlink" x="0px" y="0px"
	 viewBox="0 0 288 288" style="enable-background:new 0 0 288 288;" xml:space="preserve">
<style type="text/css">
	.st0{fill:none;stroke:#977C46;stroke-width:9.6;}
	.st1{fill:none;stroke:#8DBDEA;stroke-width:9.6;}
	.st2{fill:none;stroke:#BABABA;stroke-width:9.6;}
</style>
<desc>Created with Sketch.</desc>
<g>
	<path id="Path" class="st0" d="M100.4,2v33.6"/>
	<path id="Path_1_" class="st0" d="M47.6,88.1H14"/>
	<path id="Path_2_" class="st0" d="M63,50.7L39.2,26.9"/>
	<path id="Path_3_" class="st0" d="M128.1,61.3c-9.8-10.1-24.4-14-38-10.2s-24,14.8-27.1,28.5C60,93.4,64.7,107.7,75.3,117"/>
</g>
<path id="Path_4_" class="st1" d="M244.5,218.1v57.5"/>
<path id="Path_5_" class="st1" d="M219.6,232.5l49.8,28.7"/>
<path id="Path_6_" class="st1" d="M219.6,261.2l49.8-28.7"/>
<path id="Path_7_" class="st1" d="M76.4,218.1v57.5"/>
<path id="Path_8_" class="st1" d="M51.5,232.5l49.8,28.7"/>
<path id="Path_9_" class="st1" d="M51.5,261.2l49.8-28.7"/>
<path id="Path_10_" class="st2" d="M218.1,188.9c30.5,0,55.2-24.7,55.2-55.2s-24.7-55.2-55.2-55.2h-9.5
	c-17.6-20.8-46.1-28.8-72-20.4s-44.2,31.6-46.2,58.8H78.8c-19.9,0-36,16.1-36,36s16.1,36,36,36H218.1z"/>
<path id="Path_11_" class="st1" d="M160.4,208.4v76.8"/>
<path id="Path_12_" class="st1" d="M127.2,227.6l66.5,38.4"/>
<path id="Path_13_" class="st1" d="M127.2,266l66.5-38.4"/>
</svg>
