<?xml version="1.0" encoding="utf-8"?>
<!-- Generator: Adobe Illustrator 25.0.1, SVG Export Plug-In . SVG Version: 6.00 Build 0)  -->
<svg version="1.1" id="Layer_1" xmlns="http://www.w3.org/2000/svg" xmlns:xlink="http://www.w3.org/1999/xlink" x="0px" y="0px"
	 viewBox="0 0 288 288" style="enable-background:new 0 0 288 288;" xml:space="preserve">
<style type="text/css">
	.st0{fill:none;stroke:#8DBDEA;stroke-width:9.7959;}
	.st1{fill:none;stroke:#BABABA;stroke-width:9.7959;}
</style>
<desc>Created with Sketch.</desc>
<polygon id="Path" class="st0" points="178.9,193.4 175.7,193.4 155.2,224.9 175.7,257.4 178.9,257.4 199.4,224.9 "/>
<path id="Path_1_" class="st1" d="M204.9,168.7c31.1,0,56.3-25.2,56.3-56.3S236,56,204.9,56h-9.6c-18-21.2-47-29.4-73.4-20.8
	s-45.1,32.3-47.2,60H62.8C42.5,95.2,26,111.7,26,132c0,20.3,16.4,36.7,36.7,36.7H204.9z"/>
<path id="Path_2_" class="st0" d="M106.1,188.5l-17.3,29.9"/>
<circle id="Oval" class="st0" cx="80.3" cy="231" r="1.8"/>
<path id="Path_3_" class="st0" d="M142.2,188.5l-29.7,51.4"/>
<circle id="Oval_1_" class="st0" cx="102.1" cy="255.6" r="1.8"/>
</svg>
