<?xml version="1.0" encoding="utf-8"?>
<!-- Generator: Adobe Illustrator 25.0.1, SVG Export Plug-In . SVG Version: 6.00 Build 0)  -->
<svg version="1.1" id="Layer_1" xmlns="http://www.w3.org/2000/svg" xmlns:xlink="http://www.w3.org/1999/xlink" x="0px" y="0px"
	 viewBox="0 0 288 288" style="enable-background:new 0 0 288 288;" xml:space="preserve">
<style type="text/css">
	.st0{fill:none;stroke:#B69759;stroke-width:9.5932;}
	.st1{fill:none;stroke:#BABABA;stroke-width:9.5932;}
</style>
<desc>Created with Sketch.</desc>
<g>
	<path id="Path" class="st0" d="M143.9,21v48"/>
	<path id="Path_1_" class="st0" d="M0,164.9h48"/>
	<path id="Path_2_" class="st0" d="M211.7,97.1l33.9-33.9"/>
	<path id="Path_3_" class="st0" d="M76.1,97.1L42.2,63.2"/>
	<path id="Path_4_" class="st0" d="M42.2,266.6l33.9-33.9"/>
	<path id="Path_5_" class="st0" d="M220.4,159.1c-2.7-35.7-29.7-64.9-65.1-70.2s-69.8,14.6-82.9,48s-1.3,71.3,28.4,91.4"/>
</g>
<path id="Path_6_" class="st1" d="M239.8,169.7h-7.5c-13.7-16.3-35.7-22.8-56-16.5c-20.3,6.3-34.9,24.1-36.9,45.3h-9.8
	c-15.9,0-28.8,12.9-28.8,28.8s12.9,28.8,28.8,28.8h110.3c23.8,0,43.2-19.3,43.2-43.2l0,0C283,189,263.7,169.7,239.8,169.7z"/>
</svg>
