<?xml version="1.0" encoding="utf-8"?>
<!-- Generator: Adobe Illustrator 25.0.1, SVG Export Plug-In . SVG Version: 6.00 Build 0)  -->
<svg version="1.1" id="Layer_1" xmlns="http://www.w3.org/2000/svg" xmlns:xlink="http://www.w3.org/1999/xlink" x="0px" y="0px"
	 viewBox="0 0 288 288" style="enable-background:new 0 0 288 288;" xml:space="preserve">
<style type="text/css">
	.st0{fill:none;stroke:#8DBDEA;stroke-width:9.7895;}
	.st1{fill:none;stroke:#686763;stroke-width:9.7895;stroke-linejoin:bevel;}
	.st2{fill:none;stroke:#BABABA;stroke-width:9.7895;}
</style>
<desc>Created with Sketch.</desc>
<path id="Path" class="st0" d="M31.1,259.5l21.5-36.9"/>
<path id="Path_1_" class="st0" d="M104,259.5l20-34.2"/>
<path id="Path_2_" class="st0" d="M56.8,278.1l32.5-55.6"/>
<path id="Path_3_" class="st1" d="M95.5,202.8c24.7,26.8,60.5,40.4,96.7,37c36.2-3.5,68.8-23.7,88-54.6c-32.9,7.3-67.4-0.4-94.1-21"
	/>
<path id="Path_4_" class="st1" d="M151.2,119C136,83.1,140.7,41.9,163.4,10.2C111.8,18,71.7,59.3,65.5,111.2"/>
<path id="Path_5_" class="st2" d="M144.1,202.8c22.8-0.8,40.8-19.4,40.8-42.2s-18-41.4-40.8-42.2h-7.2c-13.5-16-35.2-22.2-55.1-15.7
	s-33.8,24.3-35.4,45.1h-8.9c-10.1-0.4-19.6,4.7-24.8,13.4c-5.2,8.7-5.2,19.5,0,28.2s14.7,13.8,24.8,13.4H144.1z"/>
</svg>
