<?xml version="1.0" encoding="utf-8"?>
<!-- Generator: Adobe Illustrator 25.0.1, SVG Export Plug-In . SVG Version: 6.00 Build 0)  -->
<svg version="1.1" id="Layer_1" xmlns="http://www.w3.org/2000/svg" xmlns:xlink="http://www.w3.org/1999/xlink" x="0px" y="0px"
	 viewBox="0 0 288 288" style="enable-background:new 0 0 288 288;" xml:space="preserve">
<style type="text/css">
	.st0{fill:none;stroke:#686763;stroke-width:9.6667;stroke-linejoin:bevel;}
	.st1{fill:none;stroke:#BABABA;stroke-width:9.6667;}
	.st2{fill:none;stroke:#8DBDEA;stroke-width:9.6667;}
</style>
<desc>Created with Sketch.</desc>
<path id="Path" class="st0" d="M235.8,131.1c15-4.6,27.9-14.5,36.2-27.9c-25.3,5.7-51.4-4.8-65.8-26.3c-14.4-21.5-14-49.7,1-70.9
	c-28.7,4.3-51,27.3-54.5,56.1"/>
<path id="Path_1_" class="st1" d="M71.2,194.2c-30.7-0.1-55.5-25-55.5-55.7c0.1-30.7,25-55.5,55.7-55.5h9.3
	c17.8-20.9,46.4-29,72.4-20.5s44.5,31.8,46.6,59.2h11.7c20,0,36.2,16.2,36.2,36.2s-16.2,36.2-36.2,36.2H71.2z"/>
<path id="Path_2_" class="st2" d="M82.6,259l26.5-45.4"/>
<path id="Path_3_" class="st2" d="M152.9,259l26.5-45.4"/>
<path id="Path_4_" class="st2" d="M104.4,281.9l39.9-68.3"/>
</svg>
