<?xml version="1.0" encoding="utf-8"?>
<!-- Generator: Adobe Illustrator 25.0.1, SVG Export Plug-In . SVG Version: 6.00 Build 0)  -->
<svg version="1.1" id="Layer_1" xmlns="http://www.w3.org/2000/svg" xmlns:xlink="http://www.w3.org/1999/xlink" x="0px" y="0px"
	 viewBox="0 0 288 288" style="enable-background:new 0 0 288 288;" xml:space="preserve">
<style type="text/css">
	.st0{fill:none;stroke:#977C46;stroke-width:9.8246;}
	.st1{fill:none;stroke:#686763;stroke-width:9.8246;stroke-linejoin:bevel;}
	.st2{fill:none;stroke:#BABABA;stroke-width:9.8246;}
</style>
<desc>Created with Sketch.</desc>
<polyline id="Path" class="st0" points="60.7,277.1 92.1,223.3 59.6,223.3 88.4,174 "/>
<path id="Path_1_" class="st1" d="M94.8,203.5c24.8,26.8,60.7,40.6,97.1,37.1c36.4-3.5,69-23.7,88.3-54.8
	c-33.1,7.3-67.7-0.4-94.5-21.1"/>
<path id="Path_2_" class="st1" d="M150.7,119.4C135.5,83.3,140.2,42,163,10.2C111.2,18,70.9,59.5,64.8,111.5"/>
<path id="Path_3_" class="st2" d="M87.5,203.5h56c22.8-0.8,41-19.5,41-42.4s-18.1-41.6-41-42.4h-7.2c-13.5-16-35.4-22.3-55.3-15.8
	s-34,24.4-35.5,45.3h-8.9c-10.1-0.4-19.7,4.7-24.9,13.5s-5.2,19.6,0,28.3c5.2,8.7,14.8,13.9,24.9,13.5h16.5"/>
</svg>
