<?xml version="1.0" encoding="utf-8"?>
<!-- Generator: Adobe Illustrator 25.0.1, SVG Export Plug-In . SVG Version: 6.00 Build 0)  -->
<svg version="1.1" id="Layer_1" xmlns="http://www.w3.org/2000/svg" xmlns:xlink="http://www.w3.org/1999/xlink" x="0px" y="0px"
	 viewBox="0 0 288 288" style="enable-background:new 0 0 288 288;" xml:space="preserve">
<style type="text/css">
	.st0{fill:none;stroke:#686763;stroke-width:9.7015;stroke-linejoin:bevel;}
	.st1{fill:none;stroke:#BABABA;stroke-width:9.7015;}
	.st2{fill:none;stroke:#977C46;stroke-width:9.7015;}
</style>
<desc>Created with Sketch.</desc>
<path id="Path" class="st0" d="M235.8,131.5c15.1-4.6,28-14.6,36.3-28c-25.4,5.7-51.6-4.8-66.1-26.4c-14.4-21.6-14-49.9,1-71.1
	c-28.8,4.3-51.2,27.4-54.7,56.3"/>
<path id="Path_1_" class="st1" d="M109.6,194.8H70.8c-30.8-0.1-55.7-25.1-55.7-55.9c0.1-30.8,25.1-55.7,55.9-55.7h9.4
	c17.8-20.9,46.5-29.1,72.7-20.6s44.6,31.9,46.7,59.4h11.7c20.1,0,36.4,16.3,36.4,36.4s-16.3,36.4-36.4,36.4h-61.7"/>
<polyline id="Path_2_" class="st2" points="119.1,285.3 156.7,220.9 114.8,220.9 152.3,156.6 "/>
</svg>
