<?xml version="1.0" encoding="utf-8"?>
<!-- Generator: Adobe Illustrator 25.0.1, SVG Export Plug-In . SVG Version: 6.00 Build 0)  -->
<svg version="1.1" id="Layer_1" xmlns="http://www.w3.org/2000/svg" xmlns:xlink="http://www.w3.org/1999/xlink" x="0px" y="0px"
	 viewBox="0 0 288 288" style="enable-background:new 0 0 288 288;" xml:space="preserve">
<style type="text/css">
	.st0{fill:none;stroke:#686763;stroke-width:9.5653;stroke-linejoin:bevel;}
	.st1{fill:none;stroke:#BABABA;stroke-width:9.5653;}
	.st2{fill:none;stroke:#8DBDEA;stroke-width:9.5653;}
</style>
<desc>Created with Sketch.</desc>
<path id="Path" class="st0" d="M234.5,128.8c14.9-4.6,27.6-14.4,35.8-27.6c-25,5.6-50.9-4.7-65.1-26S191.3,25.9,206.1,5
	c-28.4,4.3-50.4,27-53.9,55.5"/>
<path id="Path_1_" class="st1" d="M71.6,191.2c-30.4-0.1-54.9-24.7-54.9-55.1c0.1-30.4,24.7-54.9,55.1-54.9h9.2
	c17.6-20.7,45.9-28.7,71.7-20.3s44,31.5,46.1,58.5h11.6c19.8,0,35.9,16.1,35.9,35.9s-16.1,35.9-35.9,35.9H71.6z"/>
<path id="Path_2_" class="st2" d="M134,210.7v76.5"/>
<path id="Path_3_" class="st2" d="M100.9,229.8l66.2,38.3"/>
<path id="Path_4_" class="st2" d="M100.9,268l66.2-38.3"/>
</svg>
