<?xml version="1.0" encoding="utf-8"?>
<!-- Generator: Adobe Illustrator 25.0.1, SVG Export Plug-In . SVG Version: 6.00 Build 0)  -->
<svg version="1.1" id="Layer_1" xmlns="http://www.w3.org/2000/svg" xmlns:xlink="http://www.w3.org/1999/xlink" x="0px" y="0px"
	 viewBox="0 0 288 288" style="enable-background:new 0 0 288 288;" xml:space="preserve">
<style type="text/css">
	.st0{fill:none;stroke:#686763;stroke-width:9.5958;stroke-linejoin:bevel;}
	.st1{fill:none;stroke:#BABABA;stroke-width:9.5958;}
	.st2{fill:none;stroke:#8DBDEA;stroke-width:9.5958;}
</style>
<desc>Created with Sketch.</desc>
<path id="Path" class="st0" d="M235.2,129.2c14.9-4.6,27.7-14.4,35.9-27.7c-25.1,5.7-51.1-4.7-65.3-26.1S191.9,26,206.7,5
	c-28.5,4.3-50.6,27.1-54.1,55.7"/>
<path id="Path_1_" class="st1" d="M71.8,191.8c-30.5-0.1-55.1-24.8-55.1-55.3C16.8,106,41.6,81.4,72,81.4h9.3
	c17.6-20.7,46-28.8,71.9-20.3s44.1,31.6,46.2,58.7H211c19.9,0,36,16.1,36,36s-16.1,36-36,36H71.8z"/>
<path id="Path_2_" class="st2" d="M218.4,221v57.5"/>
<path id="Path_3_" class="st2" d="M193.5,235.4l49.8,28.7"/>
<path id="Path_4_" class="st2" d="M193.5,264.1l49.8-28.7"/>
<path id="Path_5_" class="st2" d="M50.3,221v57.5"/>
<path id="Path_6_" class="st2" d="M25.5,235.4l49.8,28.7"/>
<path id="Path_7_" class="st2" d="M25.5,264.1l49.8-28.7"/>
<path id="Path_8_" class="st2" d="M134.4,211.3v76.8"/>
<path id="Path_9_" class="st2" d="M101.2,230.5l66.5,38.4"/>
<path id="Path_10_" class="st2" d="M101.2,268.9l66.5-38.4"/>
</svg>
