<?xml version="1.0" encoding="utf-8"?>
<!-- Generator: Adobe Illustrator 25.0.1, SVG Export Plug-In . SVG Version: 6.00 Build 0)  -->
<svg version="1.1" id="Layer_1" xmlns="http://www.w3.org/2000/svg" xmlns:xlink="http://www.w3.org/1999/xlink" x="0px" y="0px"
	 viewBox="0 0 288 288" style="enable-background:new 0 0 288 288;" xml:space="preserve">
<style type="text/css">
	.st0{fill:none;stroke:#B69759;stroke-width:9.5326;}
	.st1{fill:none;stroke:#BABABA;stroke-width:9.5326;}
</style>
<desc>Created with Sketch.</desc>
<g>
	<path id="Path" class="st0" d="M143,1v47.7"/>
	<path id="Path_1_" class="st0" d="M143,239.3V287"/>
	<path id="Path_2_" class="st0" d="M0,144h47.7"/>
	<path id="Path_3_" class="st0" d="M210.4,76.6l33.7-33.7"/>
	<path id="Path_4_" class="st0" d="M244.1,245.1l-33.7-33.7"/>
	<path id="Path_5_" class="st0" d="M75.6,76.6L41.9,42.9"/>
	<path id="Path_6_" class="st0" d="M211.6,111c-15-31.1-49-48.2-82.9-41.8c-33.9,6.5-59.3,34.9-61.8,69.3
		c-2.5,34.4,18.4,66.3,51,77.6c32.6,11.3,68.8-0.6,88.2-29.2"/>
</g>
<path id="Path_7_" class="st1" d="M250.2,124.9H246c-10-12.4-26.7-17.3-41.9-12.2c-15.1,5.1-25.5,19.1-25.9,35h-6.1
	c-10.4,0.5-18.6,9.1-18.6,19.6c0,10.4,8.2,19.1,18.6,19.6h78c11.5,0.6,22.4-5.1,28.3-15c5.9-9.8,5.9-22.2,0-32
	C272.6,130.1,261.7,124.3,250.2,124.9L250.2,124.9z"/>
<path id="Path_8_" class="st1" d="M78.6,234.5h-4.4c0-13.2-10.7-23.8-23.8-23.8c-7.4,0-14.3,3.6-18.7,9.5h-7.8
	c-10.5,0-19.1,8.5-19.1,19.1l0,0c0,10.5,8.5,19.1,19.1,19.1h54.8c6.6,0,11.9-5.3,11.9-11.9C90.6,239.9,85.2,234.5,78.6,234.5
	L78.6,234.5z"/>
</svg>
