<?xml version="1.0" encoding="utf-8"?>
<!-- Generator: Adobe Illustrator 25.0.1, SVG Export Plug-In . SVG Version: 6.00 Build 0)  -->
<svg version="1.1" id="Layer_1" xmlns="http://www.w3.org/2000/svg" xmlns:xlink="http://www.w3.org/1999/xlink" x="0px" y="0px"
	 viewBox="0 0 288 288" style="enable-background:new 0 0 288 288;" xml:space="preserve">
<style type="text/css">
	.st0{fill:none;stroke:#977C46;stroke-width:9.661;}
	.st1{fill:none;stroke:#8DBDEA;stroke-width:9.661;}
	.st2{fill:none;stroke:#BABABA;stroke-width:9.661;}
</style>
<desc>Created with Sketch.</desc>
<g>
	<path id="Path" class="st0" d="M127.6,45.5V2"/>
	<path id="Path_1_" class="st0" d="M69.6,69.5L38.9,38.8"/>
	<path id="Path_2_" class="st0" d="M45.6,127.5H2.1"/>
	<path id="Path_3_" class="st0" d="M69.6,185.6l-30.8,30.8"/>
	<path id="Path_4_" class="st0" d="M185.6,69.5l30.8-30.7"/>
	<path id="Path_5_" class="st0" d="M191.5,105.4c-10-29.1-38.4-47.7-69.1-45.4C91.7,62.4,66.4,85.1,61,115.4s10.2,60.4,38.1,73.4"/>
</g>
<path id="Path_6_" class="st1" d="M137.7,266.7L159,230"/>
<path id="Path_7_" class="st1" d="M208.5,266.7l21.4-36.6"/>
<path id="Path_8_" class="st1" d="M162.8,285.1l32.1-55.1"/>
<path id="Path_9_" class="st2" d="M282.2,168.3c0-11.7-4.6-22.9-12.9-31.1c-8.2-8.3-19.4-12.9-31.1-12.9h-7.4
	c-14-16.7-36.7-23.1-57.4-16.4s-35.3,25.3-36.8,47h-9.2c-15.8,0-28.7,12.8-28.7,28.7s12.8,28.7,28.7,28.7h111.1
	C262.6,212.2,282.2,192.5,282.2,168.3L282.2,168.3z"/>
</svg>
