<?xml version="1.0" encoding="utf-8"?>
<!-- Generator: Adobe Illustrator 25.0.1, SVG Export Plug-In . SVG Version: 6.00 Build 0)  -->
<svg version="1.1" id="Layer_1" xmlns="http://www.w3.org/2000/svg" xmlns:xlink="http://www.w3.org/1999/xlink" x="0px" y="0px"
	 viewBox="0 0 288 288" style="enable-background:new 0 0 288 288;" xml:space="preserve">
<style type="text/css">
	.st0{fill:none;stroke:#8DBDEA;stroke-width:9.7959;}
	.st1{fill:none;stroke:#BABABA;stroke-width:9.7959;}
</style>
<desc>Created with Sketch.</desc>
<path id="Path" class="st0" d="M231.8,193.5v58.7"/>
<path id="Path_1_" class="st0" d="M206.4,208.2l50.8,29.3"/>
<path id="Path_2_" class="st0" d="M206.4,237.5l50.8-29.3"/>
<path id="Path_3_" class="st0" d="M60.2,193.5v58.7"/>
<path id="Path_4_" class="st0" d="M34.9,208.2l50.8,29.3"/>
<path id="Path_5_" class="st0" d="M34.9,237.5l50.8-29.3"/>
<path id="Path_6_" class="st1" d="M204.9,163.7c31.1,0,56.3-25.2,56.3-56.3S236,51,204.9,51h-9.6c-18-21.2-47-29.4-73.4-20.8
	s-45.1,32.3-47.2,60H62.8C42.5,90.2,26,106.7,26,127s16.4,36.7,36.7,36.7H204.9z"/>
<path id="Path_7_" class="st0" d="M146,183.6V262"/>
<path id="Path_8_" class="st0" d="M112.1,203.2l67.8,39.2"/>
<path id="Path_9_" class="st0" d="M112.1,242.4l67.8-39.2"/>
</svg>
